<mxfile host="app.diagrams.net" modified="2023-04-11T06:54:00.248Z" agent="Mozilla/5.0 (Windows NT 10.0; Win64; x64) AppleWebKit/537.36 (KHTML, like Gecko) Chrome/111.0.0.0 Safari/537.36" version="21.1.5" etag="rIv3T7XmokqZO8dt220F" type="github">
  <diagram name="Page-1" id="-IKydAlsFW7SI3rjblHl">
    <mxGraphModel>
      <root>
        <mxCell id="0" />
        <mxCell id="1" parent="0" />
      </root>
    </mxGraphModel>
  </diagram>
</mxfile>
